<svg width="90" height="90" viewBox="0 0 90 90" fill="none" xmlns="http://www.w3.org/2000/svg">
<circle cx="45" cy="45" r="42.5" fill="#FFB547" stroke="#FFF8ED" stroke-width="5"/>
<path d="M59.6762 36C59.6762 39.866 56.7266 43 53.088 43C49.4494 43 46.4998 39.866 46.4998 36C46.4998 32.134 49.4494 29 53.088 29C56.7266 29 59.6762 32.134 59.6762 36Z" fill="#FFCF8B"/>
<path d="M65.4409 54.5294C65.4409 55.3373 64.9862 56.0838 64.2438 56.4024C63.3476 56.787 62.3603 57 61.3233 57H44.8527C44.3518 57 43.8624 56.9503 43.3894 56.8556C42.2973 56.6369 41.5586 55.6431 41.5586 54.5294V52.8824C41.5586 46.9697 46.3518 42.1765 52.2645 42.1765H54.7351C60.6478 42.1765 65.4409 46.9697 65.4409 52.8824V54.5294Z" fill="#FFCF8B"/>
<path d="M42.6762 36C42.6762 39.866 39.7266 43 36.088 43C32.4494 43 29.4998 39.866 29.4998 36C29.4998 32.134 32.4494 29 36.088 29C39.7266 29 42.6762 32.134 42.6762 36Z" fill="#FFCF8B"/>
<path d="M48.4409 54.5294C48.4409 55.3373 47.9862 56.0838 47.2438 56.4024C46.3476 56.787 45.3603 57 44.3233 57H27.8527C27.3518 57 26.8624 56.9503 26.3894 56.8556C25.2973 56.6369 24.5586 55.6431 24.5586 54.5294V52.8824C24.5586 46.9697 29.3518 42.1765 35.2645 42.1765H37.7351C43.6478 42.1765 48.4409 46.9697 48.4409 52.8824V54.5294Z" fill="#FFCF8B"/>
<path d="M50.5606 43.5804C52.4075 41.8314 53.5586 39.2928 53.5586 36.5C53.5586 31.3113 49.5854 27 44.5586 27C39.5318 27 35.5586 31.3113 35.5586 36.5C35.5586 39.4241 36.8204 42.0695 38.8216 43.8217C33.4208 45.7633 29.5586 50.9306 29.5586 57V59C29.5586 60.78 30.7456 62.4368 32.5853 62.8052C33.2241 62.9331 33.884 63 34.5586 63H54.5586C55.9559 63 57.2887 62.7128 58.4993 62.1933C59.7972 61.6363 60.5586 60.3483 60.5586 59V57C60.5586 50.6587 56.3426 45.3021 50.5606 43.5804Z" stroke="#FFB547" stroke-width="2"/>
<path d="M52.5586 36.5C52.5586 41.1944 48.9769 45 44.5586 45C40.1403 45 36.5586 41.1944 36.5586 36.5C36.5586 31.8056 40.1403 28 44.5586 28C48.9769 28 52.5586 31.8056 52.5586 36.5Z" fill="#FFF7E8"/>
<path d="M59.5586 59C59.5586 59.981 59.0064 60.8875 58.1049 61.2744C57.0167 61.7414 55.8178 62 54.5586 62H34.5586C33.9503 62 33.3561 61.9397 32.7817 61.8246C31.4557 61.5591 30.5586 60.3524 30.5586 59V57C30.5586 49.8203 36.3789 44 43.5586 44H46.5586C53.7383 44 59.5586 49.8203 59.5586 57V59Z" fill="#FFF7E8"/>
</svg>
