<svg width="90" height="90" viewBox="0 0 90 90" fill="none" xmlns="http://www.w3.org/2000/svg">
<circle cx="45" cy="45" r="42.5" fill="#37A7FF" stroke="#EBF6FF" stroke-width="5"/>
<path fill-rule="evenodd" clip-rule="evenodd" d="M57.8351 51.0815C60.346 49.4051 61.9998 46.5456 61.9998 43.3C61.9998 38.1361 57.8137 33.95 52.6498 33.95C47.4859 33.95 43.2998 38.1361 43.2998 43.3C43.2998 46.5453 44.9532 49.4044 47.4636 51.081C46.0404 51.4871 44.9984 52.7973 44.9984 54.3509C44.9984 56.2286 46.5207 57.7509 48.3984 57.7509H56.8984C58.7762 57.7509 60.2984 56.2286 60.2984 54.3509C60.2984 52.798 59.2574 51.4883 57.8351 51.0815Z" fill="#9BD3FF"/>
<path d="M27.15 41.6001C27.15 45.3979 28.7067 48.8322 31.2169 51.2996C29.7791 52.3857 28.85 54.1094 28.85 56.0501C28.85 59.3362 31.5139 62.0001 34.8 62.0001H46.7C49.9861 62.0001 52.65 59.3362 52.65 56.0501C52.65 54.1094 51.7209 52.3857 50.2831 51.2996C52.7933 48.8322 54.35 45.3979 54.35 41.6001C54.35 34.089 48.2611 28.0001 40.75 28.0001C33.2389 28.0001 27.15 34.089 27.15 41.6001Z" fill="#EBF6FF" stroke="#37A7FF" stroke-width="1.7"/>
<path d="M46.6983 42.4503C46.6983 44.1503 44.9983 47.5503 40.7483 47.5503C36.4983 47.5503 34.7983 44.1503 34.7983 42.4503" stroke="#37A7FF" stroke-width="2.55" stroke-linecap="round"/>
</svg>
